<svg width="35" height="25" viewBox="0 0 35 25" fill="none" xmlns="http://www.w3.org/2000/svg">
<path d="M29.0244 0H5.12195C3.76352 0 2.46074 0.493171 1.50018 1.37102C0.539633 2.24887 0 3.43949 0 4.68096V20.2841C0 21.5256 0.539633 22.7162 1.50018 23.5941C2.46074 24.4719 3.76352 24.9651 5.12195 24.9651H29.0244C30.3828 24.9651 31.6856 24.4719 32.6462 23.5941C33.6067 22.7162 34.1463 21.5256 34.1463 20.2841V4.68096C34.1463 3.43949 33.6067 2.24887 32.6462 1.37102C31.6856 0.493171 30.3828 0 29.0244 0ZM27.8805 3.12064L17.0732 10.5322L6.26585 3.12064H27.8805ZM29.0244 21.8445H5.12195C4.66914 21.8445 4.23488 21.6801 3.9147 21.3875C3.59451 21.0948 3.41463 20.698 3.41463 20.2841V5.07104L16.0488 13.7308C16.3443 13.9334 16.7038 14.0429 17.0732 14.0429C17.4426 14.0429 17.802 13.9334 18.0976 13.7308L30.7317 5.07104V20.2841C30.7317 20.698 30.5518 21.0948 30.2316 21.3875C29.9115 21.6801 29.4772 21.8445 29.0244 21.8445Z" fill="white"/>
</svg>
