<svg width="40" height="40" viewBox="0 0 40 40" fill="none" xmlns="http://www.w3.org/2000/svg">
<path d="M5.71429 0C5.31429 0 4.97143 0.0490574 4.62857 0.147172C2.4 0.539631 0.628571 2.06041 0.171429 3.97365C0 4.26799 0 4.56234 0 4.90574V31.8873C0 35.9591 3.82857 39.2459 8.57143 39.2459H40V34.3402H8.57143C6.97143 34.3402 5.71429 33.2609 5.71429 31.8873C5.71429 30.5137 6.97143 29.4344 8.57143 29.4344H40V2.45287C40 1.07926 38.7429 0 37.1429 0H34.2857V14.7172L28.5714 9.81148L22.8571 14.7172V0H5.71429Z" fill="white"/>
</svg>
