<svg width="28" height="29" viewBox="0 0 28 29" fill="none" xmlns="http://www.w3.org/2000/svg">
<path d="M21.517 28.9997C15.8126 28.9921 10.3439 26.637 6.31034 22.4511C2.27673 18.2651 0.0073939 12.5899 0 6.67007C0 4.9011 0.677144 3.20458 1.88247 1.95373C3.08779 0.702886 4.72256 0.000165725 6.42714 0.000165725C6.7881 -0.00268754 7.14845 0.0313088 7.50299 0.101664C7.84574 0.154299 8.18269 0.241717 8.50898 0.36266C8.73847 0.446222 8.94296 0.5905 9.10225 0.781229C9.26153 0.971958 9.37008 1.20253 9.41716 1.45014L11.3313 10.15C11.3829 10.3862 11.3767 10.632 11.3133 10.865C11.2498 11.098 11.1311 11.3108 10.9681 11.484C10.7864 11.687 10.7725 11.7015 9.05389 12.6295C10.4301 15.7627 12.8448 18.2788 15.8583 19.7199C16.7665 17.9219 16.7804 17.9074 16.976 17.7189C17.1429 17.5497 17.348 17.4265 17.5725 17.3607C17.7971 17.2948 18.0339 17.2884 18.2615 17.3419L26.6447 19.3284C26.8757 19.384 27.0892 19.4997 27.2652 19.6646C27.4412 19.8295 27.5738 20.0381 27.6507 20.2709C27.7686 20.615 27.8574 20.9692 27.9162 21.3294C27.9724 21.6938 28.0004 22.0623 28 22.4313C27.9742 24.1927 27.278 25.872 26.0634 27.1027C24.8488 28.3333 23.2144 29.0153 21.517 28.9997Z" fill="white"/>
</svg>
